<?xml version="1.0" encoding="utf-8"?>
<!-- Svg Vector Icons : http://www.onlinewebfonts.com/icon -->
<!DOCTYPE svg PUBLIC "-//W3C//DTD SVG 1.1//EN" "http://www.w3.org/Graphics/SVG/1.1/DTD/svg11.dtd">
<svg version="1.1" xmlns="http://www.w3.org/2000/svg" xmlns:xlink="http://www.w3.org/1999/xlink" x="0px" y="0px" viewBox="0 0 256 256" enable-background="new 0 0 256 256" xml:space="preserve">
<metadata> Svg Vector Icons : http://www.onlinewebfonts.com/icon </metadata>
<g><g><path fill="#000000" d="M98.5,135.4H46.9v14.8h51.6V135.4z M46.9,187h51.6v-14.8H46.9V187z M187,128c-32.5,0-59,26.5-59,59s26.5,59,59,59s59-26.5,59-59S219.5,128,187,128z M187,231.3c-24.4,0-44.3-19.8-44.3-44.3s19.9-44.2,44.3-44.2s44.3,19.8,44.3,44.3C231.3,211.4,211.4,231.3,187,231.3z M32.2,209.1c-2,0-3.8-0.8-5.2-2.2c-1.4-1.4-2.2-3.3-2.2-5.2v-88.5h170.6c4.8,0.7,9.4,1.9,13.7,3.7v-3.7V98.5V61.6c0-5.9-2.3-11.5-6.5-15.7c-4.2-4.2-9.7-6.5-15.7-6.5h-14.8V10h-14.8v29.5H69V10H54.3v29.5H32.1c-5.9,0-11.5,2.3-15.7,6.5c-4.2,4.2-6.5,9.7-6.5,15.7v140.1c0,5.9,2.3,11.5,6.5,15.7c4.2,4.2,9.7,6.5,15.7,6.5h93.5c-3.6-4.4-6.5-9.4-8.7-14.8H32.2L32.2,209.1z M24.8,76.4v-9.9v-4.8c0-2,0.8-3.8,2.2-5.2c1.4-1.4,3.3-2.2,5.2-2.2h22.1v22.1H69V54.2h88.5v22.1h14.8V54.2H187c2,0,3.8,0.8,5.2,2.2c1.4,1.4,2.2,3.3,2.2,5.2v5.1v9.9v21.9H24.8V76.4z M194.4,157.5h-14.8v22.1v7.4v7.4h36.9v-14.8h-22.1L194.4,157.5L194.4,157.5z"/></g></g>
</svg>